<?xml version="1.0" encoding="UTF-8"?>
<svg version="1.1" viewBox="0 0 295.56 401.2" xml:space="preserve" xmlns="http://www.w3.org/2000/svg" xmlns:cc="http://creativecommons.org/ns#" xmlns:dc="http://purl.org/dc/elements/1.1/" xmlns:rdf="http://www.w3.org/1999/02/22-rdf-syntax-ns#"><metadata><rdf:RDF><cc:Work rdf:about=""><dc:format>image/svg+xml</dc:format><dc:type rdf:resource="http://purl.org/dc/dcmitype/StillImage"/></cc:Work></rdf:RDF></metadata><g transform="matrix(1.3333 0 0 -1.3333 0 401.2)"><g transform="scale(.1)" fill-rule="evenodd"><path d="m361.85 2051.3h700.07c30.6 0 55.64-25.04 55.64-55.63v-700.08c0-30.6-25.04-55.64-55.64-55.64h-412.54c57.531 21.61 112.14 48.85 146.54 81.97 103.31 99.44 55.531 256.99 67.152 371.93s107.2 73.61 107.2 73.61c-4.786 31.12-52.301 49.72-52.301 49.72-15.199 74.24-90.227 80.19-142.98 40.83-110.7-82.58 12.832-234.25-354.87-440.53-39.844-22.35-79.695-42.32-113.9-58.55v636.74c0 30.59 25.031 55.63 55.637 55.63" fill="#2489ca"/><path d="m1317.2 2051h700.08c30.6 0 55.63-25.04 55.63-55.64v-700.07c0-30.6-25.03-55.63-55.63-55.63h-211.07c-6.91 29.76-10.61 56.82-3.71 64.31 23.79 25.77 180.78-15.46 151.62 81.72-6.47 21.58-7.92 19.42 0.71 32.35 8.63 12.95 10.79 13.67 5.75 25.89-5.03 12.22 0 12.94 7.19 23.73 7.19 10.78-2.51 22.64-4.68 34.87-2.15 12.22 40.27 13.66 48.17 31.63 14.17 32.2-58.14 90.23-56.45 156.06 6.31 245.45-149.62 301.25-327.43 285.86-171.89-14.86-365.81-124.46-211.59-557.67 27.6-77.53 32.17-136.87 28.82-178.75h-127.41c-30.59 0-55.63 25.03-55.63 55.63v700.07c0 30.6 25.04 55.64 55.63 55.64" fill="#2371a4"/><path d="m359.55 3009h700.07c30.59 0 55.64-25.04 55.64-55.63v-700.08c0-30.6-25.05-55.63-55.64-55.63h-700.07c-30.598 0-55.637 25.03-55.637 55.63v22.33c17.356-0.82 36.031 0.58 54.977 5.77 75.14 20.58 78.23 36.02 78.23 36.02s86.461-6.17 144.1-28.82c57.64-22.65 89.543-30.88 84.394-10.29-5.14 20.59-65.421 53.03-79.828 68.47-14.41 15.43 29.407 19.02 81.895 21.09 39.262 1.53 165.36-74.79 172.98-69.83 31.059 20.25-70.812 69.85-73.121 74.47-7.203 14.41 24.274 19.12 47.941 8.84 22.211-9.65 87.625-53.83 57.293-2.45-22.476 38.07-72.636 60.16 30.832 80.58 57.118 11.25 141.3 8.36 144.52 20.76 9.1 35.25-89.128 101.5-106.13 131.04-9.793 16.99-4.64 36.03-19.05 38.6-14.403 2.58-20.063-19.56-25.211-16.47-5.145 3.09-18.539 32.94-35.52 28.3-16.977-4.62-38.598-67.93-93.656-58.15-55.074 9.79-196.6 53.53-296.44-4.11-95.277-55.01-68.703-230-90.218-265.55-1.032-1.71-2.188-3.09-3.45-4.12-19.089-15.56-46.753-21.13-74.531-20.09v643.69c0 30.59 25.039 55.63 55.637 55.63" fill="#5ac0ef"/><path d="m2017.6 3006.1h-700.07c-30.6 0-55.63-25.03-55.63-55.63v-700.07c0-1.58 0.07-3.14 0.2-4.69 4.61 28.75 12.92 57.25 24.98 83.36l10.87 24.54c1.83 3.63 9.77 15.98 9.21 19.32-2.19 13.14-10.81 16.87 1.54 32.94 6.42 8.38 12.74 9.53 22.3 10.82l4.06 0.54c5.78 1.43 22.12 27.34 26.68 32.88 9.42 11.4 19.94 21.84 30.61 32.07 10.31 9.89 22.88 18.17 32.6 28.44 7.31 7.74-0.42 38.79 33.42 35.84 5.13-0.44 7.19-1.17 11.24-2.93 1.71 0.82 4.3 2.56 5.47 3.3 42.88 27.08 109.9 53.33 161.63 55.84 17.64 31.42 26.58 12.8 36.92 21.03l342.9 355.74c2.3 2.4 13.66 14.12 14.18 17.5-0.92 3.31-1.39 5.75-1.34 7.9-3.8 0.82-7.74 1.26-11.77 1.26zm-720-807.63c6.19-2.4 12.92-3.71 19.93-3.71h700.07c30.61 0 55.65 25.04 55.65 55.64v700.07c0 8.23-1.82 16.06-5.07 23.12-0.64-0.38-1.27-0.75-1.93-1.11-2.41-30.75-9.29-61.02-19.81-89.99-10.03-27.65-23.42-48.27-34.08-73.36 15.96-29.2 1.3-51.72-30.6-45.94-18.98-25.62-44.73-51.73-68.35-72.57-7-6.18-16.05-12.76-22.81-19.51 8.5-32.99-23.87-53.48-45.44-31.52-15.38-5.03-54.02-26.7-70.43-32.58-26.86-9.62-54.41-16.26-82.75-19.34-1.87-4.67-2.15-9.02-6.89-14.33-8.24-9.24-21.19-8.61-32.36-5.95l-105.22-108.44c-81.26-83.76-160.51-169.59-243.05-252.08-3.39-3.39-5.54-6.1-6.86-8.4zm538.44 458.01c-10.41-4.79-19.98-11.09-30.36-16-32.32-15.31-63.08-26-98.28-31.88l-15.36-1.69c4.33 9.05 31.63 33.79 37.4 39.78l309.96 321.65c4.02 4.41 4.27 5.28 7.67 4.8 1.17-28.19-15.92-79.91-25.78-103.86-2.08-5.04-20.18-50.51-26.88-51.18-6.65-0.67-8.49 1.02-16.01-2.26-12.32-5.38-17.22-17.59-15.13-30.48 0.81-4.98 1.97-6.84 3.42-10.7-2.83-4.86-17.58-21.91-20.26-25.23-8.43-10.47-58.75-61.02-67.53-63.96-8.31 1.4-13.09 3.82-22.23 1.73-14.93-3.42-19.81-17.11-20.63-30.72zm-512.9-295.35c12.21-1.26 24.83-0.67 32.22 10.99 10.55 16.72 2.92 23.19-2.75 35.65 15.1 23.51 61.35 74.18 84.3 89.22 11.72-5.51 19.47-13.52 34.74-2.57 15.5 11.13 12.36 20.21 10.71 34.95 24.7 11.78 44.05 24.52 71.41 35.09 13.57 5.25 27.89 9.17 42.02 12.61 7.65 1.85 15.32 3.39 23.07 4.76 2.34 0.42 9.87 1.71 14.98 1.96-7.91-9.85-32.73-33.93-36.96-38.33-52.97-55.17-105.8-110.48-158.81-165.62-35.96-37.4-71.93-74.78-108.09-111.98-13.23-13.6-36.17-39.8-51.52-52.43l-1.46 0.47c2.4 26.61 8.07 52.18 16.4 77.63 2.14 6.54 4.62 12.95 6.93 19.43 6.08 17.05 15.28 31.98 22.81 48.17" fill="#239ddf"/><path d="m164.29 37.922c17.77 46.578 9.906 92.109-20.168 117.37-79.23 66.543-219.95-47.269-93.516-130.92 90.512-59.891 239.35-6.1797 302 126.05 76.633 161.77 74.16 433.46 106.36 634.53 9.003 56.242 20.711 194.88 81.296 192.18 1.293-4.867 0.086-169.12 116.67-126.87 127.72 46.258-18.843 237.11-194.64 141.12-264.68-144.57-145.7-949.79-298.01-953.46zm966.25 183.83c120.29-70.711 198.28-99.141 308.37-99.141 104.97 0 187.34 33.532 231.09 54.672 5.1 2.18 8.75 4.367 8.75 8.75 0 3.641-2.92 6.559-6.57 6.559-2.91 0-6.56-2.192-10.93-3.641-50.31-19.687-104.24-25.519-142.15-25.519-49.57 0-146.54 8.019-300.35 86.75l-146.53 75.09c45.93 30.609 126.85 111.53 126.85 239.84 0 170.58-121.01 276.29-295.25 276.29-213.59 0-298.88-163.3-298.88-282.13 0-131.22 83.102-289.41 296.7-289.41 38.64 0 85.293 8.02 114.45 18.961zm-201.93 84.559c-117.38 0-222.35 96.23-222.35 269.73 0 169.13 85.293 230.37 180.79 230.37 100.6 0 209.96-84.57 209.96-260.99 0-213.59-110.08-239.11-168.4-239.11zm625.48 164.02c3.64 0 5.83-1.453 7.28-5.102l58.32-154.54c3.64-8.75-1.45-15.32-6.56-16.769-7.3-0.731-10.21-2.192-10.21-6.57 0-5.09 8.75-5.09 21.88-5.832 58.32-1.45 111.53-1.45 137.78-1.45 26.97 0 33.53 1.45 33.53 7.282 0 5.097-3.64 5.839-9.47 5.839-8.75 0-19.69 0.731-30.62 2.911-15.31 4.378-36.45 14.468-64.16 79.828-46.65 110.45-163.3 407.87-180.79 447.97-7.29 16.774-11.66 23.332-18.22 23.332-7.3 0-11.66-8.019-20.41-29.171l-182.98-457.8c-14.58-36.453-28.43-61.242-61.96-65.621-5.83-0.719-16.05-1.45-22.61-1.45-5.82 0-8.74-1.461-8.74-5.839 0-5.832 4.37-7.282 13.85-7.282 37.91 0 78 2.192 86.02 2.192 22.6 0 53.95-2.192 77.27-2.192 8.02 0 12.4 1.45 12.4 7.282 0 4.378-2.19 5.839-10.94 5.839h-10.94c-22.59 0-29.16 9.481-29.16 22.598 0 8.75 3.65 26.242 10.94 44.473l39.37 104.24c1.45 4.379 2.92 5.832 6.56 5.832zm-148 36.449c-2.9 0-3.64 2.188-2.9 5.11l67.06 179.33c0.73 2.91 2.19 6.562 4.37 6.562 2.19 0 2.92-3.652 3.65-6.562l65.6-180.07c0.73-2.179 0-4.367-3.64-4.367zm466.56-15.312c0-67.059 0-124.65-3.64-155.27-2.92-21.14-6.56-37.179-21.14-40.097-6.56-1.461-15.31-2.911-26.24-2.911-8.75 0-11.67-2.179-11.67-5.839 0-5.09 5.1-7.282 14.58-7.282 14.59 0 33.53 1.45 50.3 1.45 17.49 0.742 33.53 0.742 41.55 0.742 10.94 0 32.8-0.742 54.67-2.192 21.15-0.73 42.28-2.191 51.03-2.191 134.15 0 194.64 80.922 194.64 158.92 0 85.289-72.89 137.06-132.66 157.46 40.09 32.078 74.35 67.797 74.35 127.58 0 38.64-23.33 109.34-155.27 109.34-24.8 0-53.22-2.18-88.95-2.18-14.58 0-60.5 2.18-99.14 2.18-10.92 0-16.03-1.45-16.03-6.559 0-5.101 4.37-6.562 12.39-6.562 10.21 0 22.6-0.719 28.43-2.18 24.05-5.109 29.89-16.77 31.35-41.547 1.45-23.332 1.45-43.742 1.45-154.55zm87.48 295.97c0 8.028 1.47 10.938 6.55 12.411 7.3 1.449 13.86 1.449 24.07 1.449 62.69 0 91.13-64.16 91.13-112.99 0-35.727-10.94-61.969-29.9-77.278-12.39-10.929-28.43-13.851-52.48-13.851-16.77 0-27.71 0.73-34.26 2.191-2.92 0.731-5.11 2.18-5.11 8.008zm166.95-383.44c0-75.809-55.41-93.309-88.22-93.309-16.77 0-33.53 0.731-53.21 8.75-23.33 9.481-25.52 21.86-25.52 69.981v172.77c0 3.641 1.47 5.11 4.38 5.11 10.92 0 18.22 0 31.34-0.742 28.43-1.45 45.2-6.559 60.5-17.5 55.41-38.629 70.73-99.86 70.73-145.06" fill="#2371a4"/></g></g></svg>
